<?xml version="1.0" encoding="UTF-8" standalone="no"?>
<!-- Created with Inkscape (http://www.inkscape.org/) -->

<svg
   width="184.24373mm"
   height="88.240646mm"
   viewBox="0 0 184.24372 88.240646"
   version="1.1"
   id="svg22763"
   sodipodi:docname="eduqg-plano-white.svg"
   inkscape:version="1.1 (ce6663b3b7, 2021-05-25)"
   xmlns:inkscape="http://www.inkscape.org/namespaces/inkscape"
   xmlns:sodipodi="http://sodipodi.sourceforge.net/DTD/sodipodi-0.dtd"
   xmlns="http://www.w3.org/2000/svg"
   xmlns:svg="http://www.w3.org/2000/svg">
  <sodipodi:namedview
     id="namedview10"
     pagecolor="#ffffff"
     bordercolor="#666666"
     borderopacity="1.0"
     inkscape:pageshadow="2"
     inkscape:pageopacity="0.0"
     inkscape:pagecheckerboard="0"
     inkscape:document-units="mm"
     showgrid="false"
     inkscape:zoom="1.1107851"
     inkscape:cx="362.80645"
     inkscape:cy="270.97951"
     inkscape:window-width="1920"
     inkscape:window-height="1043"
     inkscape:window-x="0"
     inkscape:window-y="0"
     inkscape:window-maximized="1"
     inkscape:current-layer="layer1" />
  <defs
     id="defs22760" />
  <g
     id="layer1"
     transform="translate(11.377212,-74.738095)">
    <path
       style="fill:#f9f9f9;fill-opacity:1;stroke-width:0.4;stroke-linecap:round;stroke-linejoin:round;stroke-miterlimit:10;paint-order:markers fill stroke"
       id="path9957-6-2"
       d="m 3.926743,114.42671 c 8.754913,1.29764 17.488245,-10.81198 5.8304423,-13.73842 -6.9800297,-2.387088 -17.4456984,-1.592797 -20.4234423,6.36342 -3.359444,10.99626 7.8049439,21.65536 18.4640517,21.45987 4.2132413,-0.0721 11.0032703,0.56037 13.4740383,-2.43017 -7.097727,0.62026 -15.3912285,1.28347 -20.46471935,-4.8283 -5.01793705,-4.88692 -6.81857005,-14.65479 -0.0815024,-18.95351 6.8564679,-4.47721 14.1180817,7.80288 4.5928517,9.74201 -2.7078368,2.52158 -11.9159432,-2.15719 -11.3081267,1.5343 3.2271674,0.78835 6.61072573,0.83001 9.9164067,0.8508 z"
       sodipodi:nodetypes="cscsscssscccscscscccccccscsccsscccc" />
    <path
       style="fill:#f9f9f9;fill-opacity:1;stroke-width:0.4;stroke-linecap:round;stroke-linejoin:round;stroke-miterlimit:10;paint-order:markers fill stroke"
       id="path9963-7-9"
       d="m 38.079143,101.00284 c -8.646942,2.45085 -16.810442,11.97601 -13.566482,21.23041 5.007613,7.40333 16.483175,7.93172 23.490126,3.09876 7.338906,-5.95386 4.8327,-16.49279 4.133767,-24.64143 -1.056692,-8.192293 -1.462687,-16.561951 -2.657955,-24.66259 -9.205943,-4.826164 -5.51273,8.217755 -4.488132,13.105853 1.016192,9.59316 3.007263,19.448117 1.120382,29.030697 -0.893254,9.38697 -13.728418,9.62991 -15.486466,0.6604 -1.664429,-7.4621 4.390622,-14.49271 10.62185,-17.72036 -1.054146,-0.0325 -2.120691,-0.0768 -3.16709,-0.10174 z"
       sodipodi:nodetypes="ccscscsscscsscssccssccsssccssccssscsccsccc" />
    <path
       style="fill:#f9f9f9;fill-opacity:1;stroke-width:0.433035;stroke-linecap:round;stroke-linejoin:round;stroke-miterlimit:10;paint-order:markers fill stroke"
       id="path9977-5-1"
       d="m 59.984683,99.850615 c -0.697601,6.698175 -0.567693,13.971375 1.331693,20.560945 1.53844,6.59369 8.829572,8.56829 14.772145,8.07553 6.944927,0.99452 14.954444,-2.55362 15.257592,-10.43568 0.0031,-6.1616 0.209417,-19.90916 -8.822649,-18.308308 -2.210375,5.327458 5.518215,15.194968 0.678039,22.158108 -4.865218,7.55593 -15.010271,2.89864 -15.182643,-5.29286 -2.311773,-4.94517 1.406589,-14.55456 -3.26902,-16.727105 -1.588369,-0.01024 -3.176868,-0.02022 -4.765157,-0.03063 z"
       sodipodi:nodetypes="cssscscsscssccssscccscsscccccscsssccc" />
    <path
       style="fill:#f9f9f9;fill-opacity:1;stroke-width:0.435158;stroke-linecap:round;stroke-linejoin:round;stroke-miterlimit:10;paint-order:markers fill stroke"
       id="path9987-3-2"
       d="m 111.29208,99.965215 c -8.61247,2.068555 -16.96527,10.888025 -14.866653,20.278975 1.774663,6.54291 8.882573,9.51786 15.141253,8.05909 8.65491,0.83565 10.62288,-9.38847 8.97097,-15.95493 0.69251,-4.68125 -1.32344,-11.12494 -6.47512,-6.49096 2.80011,18.16761 4.589,37.05739 13.1511,53.66467 3.00355,6.02899 11.82758,2.05549 6.50554,-3.68409 -8.16104,-15.75642 -8.61237,-33.98985 -12.61249,-50.81976 -4.00455,-1.00344 -10.2219,-2.7125 -6.72673,3.27129 0.881,6.13427 3.05355,16.39027 -4.99372,18.40941 -8.22821,-1.66365 -9.435276,-12.76783 -4.5769,-18.41825 1.09763,-3.38035 10.00568,-7.06725 8.78949,-7.92078 -0.76876,-0.13133 -1.53875,-0.2645 -2.30674,-0.394665 z"
       sodipodi:nodetypes="scscscccsscsccsscscsscccscsscscsscsscscccscsccs" />
    <path
       style="fill:#f9f9f9;fill-opacity:1;stroke-width:0.405937;stroke-linecap:round;stroke-linejoin:round;stroke-miterlimit:10;paint-order:markers fill stroke"
       id="path10007-6-0"
       d="m 148.22017,99.643015 c -6.83892,1.023905 -13.96388,4.668515 -15.7605,11.882285 -1.93237,8.0756 4.61091,18.06737 13.50897,16.95746 8.73583,0.94284 16.70819,-8.67735 12.97695,-17.04709 0.95516,-6.6836 -11.81834,-3.74892 -6.76564,2.43454 3.23428,14.32574 13.80111,26.62115 13.53608,41.77435 -1.54782,8.9591 -10.92759,-2.76991 -8.12367,-7.74404 2.30757,-9.66103 10.10468,-17.063 11.8974,-26.97161 -3.95985,-7.79635 -5.6926,3.70315 -8.92065,6.65957 -2.81272,7.96708 -10.42489,14.65324 -9.50706,23.64233 1.04113,8.35407 11.86898,14.75698 19.32565,10.223 5.39996,-8.26133 0.83245,-18.38983 -2.62273,-26.52482 -3.25325,-7.23516 -5.82871,-14.74288 -8.63135,-22.15718 -8.93311,-3.22882 -4.73245,13.12839 -13.77442,12.71567 -5.73771,-2.51017 -8.39294,-11.29571 -5.2324,-16.77276 1.03788,-5.45271 12.06369,-7.45406 12.04031,-8.31003 -1.31472,-0.25439 -2.63707,-0.50464 -3.94694,-0.761675 z"
       sodipodi:nodetypes="ccsccccccccccsscccccccsccscccscccscsccscsccccccccccccccc" />
    <path
       style="fill:#f9f9f9;fill-opacity:1;stroke-width:0.4;stroke-linecap:round;stroke-linejoin:round;stroke-miterlimit:10;paint-order:markers fill stroke"
       id="path9989-5-7"
       d="m 99.262413,139.86909 c 13.173297,1.38101 26.492277,0.88289 39.629287,2.7594 3.01064,-0.0145 14.96462,-1.52619 6.03319,-1.7522 -12.6309,-1.27693 -25.40777,-1.03523 -38.02386,-2.07207 -2.54617,0.35492 -5.09261,0.71014 -7.638617,1.06487 z"
       sodipodi:nodetypes="sccccsccssccccccs" />
  </g>
</svg>
