<svg width="374" height="322" viewBox="0 0 374 322" fill="none" xmlns="http://www.w3.org/2000/svg">
<circle cx="169.5" cy="183.5" r="0.5" fill="white"/>
<circle cx="258.5" cy="123.5" r="0.5" fill="white"/>
<circle cx="239.5" cy="216.5" r="0.5" fill="white"/>
<circle cx="53.5" cy="234.5" r="0.5" fill="white"/>
<circle cx="142.5" cy="174.5" r="0.5" fill="white"/>
<circle cx="123.5" cy="267.5" r="0.5" fill="white"/>
<circle cx="53.5" cy="234.5" r="0.5" fill="white"/>
<circle cx="142.5" cy="174.5" r="0.5" fill="white"/>
<circle cx="123.5" cy="267.5" r="0.5" fill="white"/>
<circle cx="193.775" cy="81.8351" r="0.5" transform="rotate(51.5502 193.775 81.8351)" fill="white"/>
<circle cx="296.107" cy="114.226" r="0.5" transform="rotate(51.5502 296.107 114.226)" fill="white"/>
<circle cx="211.459" cy="157.176" r="0.5" transform="rotate(51.5502 211.459 157.176)" fill="white"/>
<circle cx="81.7025" cy="22.7025" r="0.5" transform="rotate(51.5502 81.7025 22.7025)" fill="white"/>
<circle cx="184.034" cy="55.0934" r="0.5" transform="rotate(51.5502 184.034 55.0934)" fill="white"/>
<circle cx="99.3864" cy="98.0436" r="0.5" transform="rotate(51.5502 99.3864 98.0436)" fill="white"/>
<circle cx="81.7025" cy="22.7025" r="0.5" transform="rotate(51.5502 81.7025 22.7025)" fill="white"/>
<circle cx="184.034" cy="55.0934" r="0.5" transform="rotate(51.5502 184.034 55.0934)" fill="white"/>
<circle cx="99.3864" cy="98.0436" r="0.5" transform="rotate(51.5502 99.3864 98.0436)" fill="white"/>
<circle cx="257.776" cy="114.761" r="0.5" transform="rotate(29.4072 257.776 114.761)" fill="white"/>
<circle cx="364.77" cy="106.192" r="0.5" transform="rotate(29.4072 364.77 106.192)" fill="white"/>
<circle cx="302.554" cy="177.88" r="0.5" transform="rotate(29.4072 302.554 177.88)" fill="white"/>
<circle cx="131.681" cy="102.232" r="0.5" transform="rotate(29.4072 131.681 102.232)" fill="white"/>
<circle cx="238.674" cy="93.6635" r="0.5" transform="rotate(29.4072 238.674 93.6635)" fill="white"/>
<circle cx="176.458" cy="165.351" r="0.5" transform="rotate(29.4072 176.458 165.351)" fill="white"/>
<circle cx="131.681" cy="102.232" r="0.5" transform="rotate(29.4072 131.681 102.232)" fill="white"/>
<circle cx="238.674" cy="93.6635" r="0.5" transform="rotate(29.4072 238.674 93.6635)" fill="white"/>
<circle cx="176.458" cy="165.351" r="0.5" transform="rotate(29.4072 176.458 165.351)" fill="white"/>
<circle cx="328.843" cy="38.1151" r="0.5" transform="rotate(80.9574 328.843 38.1151)" fill="white"/>
<circle cx="307.255" cy="112.432" r="0.5" transform="rotate(80.9574 307.255 112.432)" fill="white"/>
<circle cx="333.488" cy="10.036" r="0.5" transform="rotate(80.9574 333.488 10.036)" fill="white"/>
<circle cx="238.657" cy="5.88902" r="0.5" transform="rotate(80.9574 238.657 5.88902)" fill="white"/>
<circle cx="333.488" cy="10.036" r="0.5" transform="rotate(80.9574 333.488 10.036)" fill="white"/>
<circle cx="238.657" cy="5.88902" r="0.5" transform="rotate(80.9574 238.657 5.88902)" fill="white"/>
<circle cx="42.7764" cy="257.761" r="0.5" transform="rotate(29.4072 42.7764 257.761)" fill="white"/>
<circle cx="149.77" cy="249.192" r="0.5" transform="rotate(29.4072 149.77 249.192)" fill="white"/>
<circle cx="87.5536" cy="320.88" r="0.5" transform="rotate(29.4072 87.5536 320.88)" fill="white"/>
<circle cx="23.6744" cy="236.663" r="0.5" transform="rotate(29.4072 23.6744 236.663)" fill="white"/>
<circle cx="23.6744" cy="236.663" r="0.5" transform="rotate(29.4072 23.6744 236.663)" fill="white"/>
<circle cx="113.843" cy="181.115" r="0.5" transform="rotate(80.9574 113.843 181.115)" fill="white"/>
<circle cx="187.085" cy="259.579" r="0.5" transform="rotate(80.9574 187.085 259.579)" fill="white"/>
<circle cx="242.411" cy="245.301" r="0.5" fill="white"/>
<circle cx="312.411" cy="278.301" r="0.5" fill="white"/>
<circle cx="222.681" cy="310.993" r="0.5" transform="rotate(29.4072 222.681 310.993)" fill="white"/>
<circle cx="259.997" cy="321.38" r="0.5" transform="rotate(80.9574 259.997 321.38)" fill="white"/>
<circle cx="312.682" cy="264.073" r="0.5" transform="rotate(-60.3262 312.682 264.073)" fill="white"/>
<circle cx="373.669" cy="145.686" r="0.5" transform="rotate(-30.919 373.669 145.686)" fill="white"/>
<circle cx="359.992" cy="313.737" r="0.5" transform="rotate(-30.919 359.992 313.737)" fill="white"/>
<circle cx="92.2548" cy="255.432" r="0.5" transform="rotate(80.9574 92.2548 255.432)" fill="white"/>
<circle cx="45.2453" cy="74.5724" r="0.5" transform="rotate(80.9574 45.2453 74.5724)" fill="white"/>
<circle cx="118.488" cy="153.036" r="0.5" transform="rotate(80.9574 118.488 153.036)" fill="white"/>
<circle cx="23.6571" cy="148.889" r="0.5" transform="rotate(80.9574 23.6571 148.889)" fill="white"/>
<circle cx="45.2453" cy="74.5724" r="0.5" transform="rotate(80.9574 45.2453 74.5724)" fill="white"/>
<circle cx="118.488" cy="153.036" r="0.5" transform="rotate(80.9574 118.488 153.036)" fill="white"/>
<circle cx="23.6571" cy="148.889" r="0.5" transform="rotate(80.9574 23.6571 148.889)" fill="white"/>
<circle cx="36" cy="6" r="1" fill="white"/>
<circle cx="148.633" cy="87.2201" r="1" transform="rotate(-43.6791 148.633 87.2201)" fill="white"/>
<circle cx="36" cy="105" r="1" fill="white"/>
<circle cx="284.414" cy="44.2367" r="1" transform="rotate(-43.6791 284.414 44.2367)" fill="white"/>
<circle cx="59" cy="76" r="1" fill="white"/>
<circle cx="295.001" cy="1.41395" r="1" transform="rotate(-43.6791 295.001 1.41395)" fill="white"/>
<circle cx="295.001" cy="1.41395" r="1" transform="rotate(-43.6791 295.001 1.41395)" fill="white"/>
<circle cx="166.414" cy="8.4911" r="1" transform="rotate(-43.6791 166.414 8.4911)" fill="white"/>
<circle cx="96" cy="185" r="1" fill="white"/>
<circle cx="1" cy="246" r="1" fill="white"/>
<circle cx="156" cy="143" r="1" fill="white"/>
<circle cx="268.633" cy="224.22" r="1" transform="rotate(-43.6791 268.633 224.22)" fill="white"/>
<circle cx="66" cy="198" r="1" fill="white"/>
<circle cx="232.414" cy="289.414" r="1" transform="rotate(-43.6791 232.414 289.414)" fill="white"/>
<circle cx="232.414" cy="289.414" r="1" transform="rotate(-43.6791 232.414 289.414)" fill="white"/>
<circle cx="169.414" cy="200.491" r="1" transform="rotate(-43.6791 169.414 200.491)" fill="white"/>
<circle cx="352.402" cy="227.402" r="1" transform="rotate(37.5793 352.402 227.402)" fill="white"/>
<circle cx="352.402" cy="227.402" r="1" transform="rotate(37.5793 352.402 227.402)" fill="white"/>
<circle cx="270.003" cy="101.246" r="1" transform="rotate(37.5793 270.003 101.246)" fill="white"/>
<circle cx="126" cy="278" r="1" fill="white"/>
<circle cx="126" cy="278" r="1" fill="white"/>
<circle cx="260" cy="71" r="2" fill="white"/>
<circle cx="196" cy="147" r="2" fill="white"/>
<circle cx="54" cy="52" r="2" fill="white"/>
<circle cx="37" cy="196" r="2" fill="white"/>
</svg>
